<svg xmlns="http://www.w3.org/2000/svg" width="91" height="25" viewBox="0 0 91 25" fill="none">
  <path d="M0 14.218C0 13.0858 0.214527 12.0919 0.64358 11.2362C1.08604 10.3805 1.68269 9.72223 2.43354 9.26146C3.18438 8.80069 4.02238 8.57031 4.94752 8.57031C5.68496 8.57031 6.35536 8.7217 6.95871 9.02449C7.57548 9.32728 8.05816 9.73539 8.40677 10.2488V5.13429H11.8459V19.7472H8.40677V18.1675C8.08498 18.6941 7.62241 19.1153 7.01905 19.4313C6.4291 19.7472 5.73859 19.9052 4.94752 19.9052C4.02238 19.9052 3.18438 19.6748 2.43354 19.2141C1.68269 18.7401 1.08604 18.0753 0.64358 17.2196C0.214527 16.3507 0 15.3502 0 14.218ZM8.40677 14.2378C8.40677 13.3952 8.16543 12.7304 7.68274 12.2433C7.21346 11.7562 6.63692 11.5126 5.95312 11.5126C5.26931 11.5126 4.68607 11.7562 4.20338 12.2433C3.73411 12.7172 3.49947 13.3755 3.49947 14.218C3.49947 15.0606 3.73411 15.732 4.20338 16.2322C4.68607 16.7193 5.26931 16.9629 5.95312 16.9629C6.63692 16.9629 7.21346 16.7193 7.68274 16.2322C8.16543 15.7451 8.40677 15.0803 8.40677 14.2378Z" fill="white"/>
  <path d="M24.9128 14.06C24.9128 14.376 24.8927 14.7051 24.8525 15.0474H17.0692C17.1228 15.732 17.344 16.2586 17.7329 16.6272C18.1351 16.9826 18.6245 17.1604 19.201 17.1604C20.0591 17.1604 20.6558 16.8049 20.991 16.094H24.6514C24.4636 16.8181 24.1217 17.4697 23.6257 18.049C23.143 18.6282 22.5329 19.0824 21.7955 19.4115C21.058 19.7407 20.2334 19.9052 19.3217 19.9052C18.2223 19.9052 17.2435 19.6748 16.3854 19.2141C15.5273 18.7533 14.8569 18.0951 14.3742 17.2393C13.8915 16.3836 13.6502 15.3831 13.6502 14.2378C13.6502 13.0924 13.8848 12.0919 14.3541 11.2362C14.8368 10.3805 15.5072 9.72223 16.3653 9.26146C17.2234 8.80069 18.2088 8.57031 19.3217 8.57031C20.4077 8.57031 21.3731 8.79411 22.2178 9.24171C23.0625 9.68932 23.7195 10.3278 24.1888 11.1572C24.6715 11.9866 24.9128 12.9542 24.9128 14.06ZM21.3932 13.1714C21.3932 12.5922 21.1921 12.1314 20.7899 11.7891C20.3876 11.4468 19.8848 11.2757 19.2815 11.2757C18.7049 11.2757 18.2156 11.4402 17.8133 11.7694C17.4245 12.0985 17.1831 12.5658 17.0893 13.1714H21.3932Z" fill="white"/>
  <path d="M37.306 14.06C37.306 14.376 37.2859 14.7051 37.2456 15.0474H29.4623C29.516 15.732 29.7372 16.2586 30.126 16.6272C30.5283 16.9826 31.0177 17.1604 31.5942 17.1604C32.4523 17.1604 33.049 16.8049 33.3842 16.094H37.0445C36.8568 16.8181 36.5149 17.4697 36.0188 18.049C35.5361 18.6282 34.9261 19.0824 34.1886 19.4115C33.4512 19.7407 32.6266 19.9052 31.7149 19.9052C30.6154 19.9052 29.6366 19.6748 28.7785 19.2141C27.9204 18.7533 27.25 18.0951 26.7673 17.2393C26.2847 16.3836 26.0433 15.3831 26.0433 14.2378C26.0433 13.0924 26.278 12.0919 26.7472 11.2362C27.2299 10.3805 27.9003 9.72223 28.7584 9.26146C29.6165 8.80069 30.602 8.57031 31.7149 8.57031C32.8009 8.57031 33.7663 8.79411 34.611 9.24171C35.4557 9.68932 36.1127 10.3278 36.5819 11.1572C37.0646 11.9866 37.306 12.9542 37.306 14.06ZM33.7864 13.1714C33.7864 12.5922 33.5853 12.1314 33.183 11.7891C32.7808 11.4468 32.278 11.2757 31.6746 11.2757C31.0981 11.2757 30.6087 11.4402 30.2065 11.7694C29.8176 12.0985 29.5763 12.5658 29.4825 13.1714H33.7864Z" fill="white"/>
  <path d="M42.5594 10.2883C42.8946 9.77489 43.3572 9.3602 43.9471 9.04424C44.5371 8.72828 45.2276 8.57031 46.0187 8.57031C46.9438 8.57031 47.7818 8.80069 48.5326 9.26146C49.2835 9.72223 49.8734 10.3805 50.3025 11.2362C50.745 12.0919 50.9662 13.0858 50.9662 14.218C50.9662 15.3502 50.745 16.3507 50.3025 17.2196C49.8734 18.0753 49.2835 18.7401 48.5326 19.2141C47.7818 19.6748 46.9438 19.9052 46.0187 19.9052C45.241 19.9052 44.5505 19.7472 43.9471 19.4313C43.3572 19.1153 42.8946 18.7072 42.5594 18.207V25H39.1203V8.72828H42.5594V10.2883ZM47.4667 14.218C47.4667 13.3755 47.2254 12.7172 46.7427 12.2433C46.2734 11.7562 45.6902 11.5126 44.993 11.5126C44.3092 11.5126 43.7259 11.7562 43.2432 12.2433C42.7739 12.7304 42.5393 13.3952 42.5393 14.2378C42.5393 15.0803 42.7739 15.7451 43.2432 16.2322C43.7259 16.7193 44.3092 16.9629 44.993 16.9629C45.6768 16.9629 46.26 16.7193 46.7427 16.2322C47.2254 15.732 47.4667 15.0606 47.4667 14.218Z" fill="white"/>
  <path d="M63.3493 14.06C63.3493 14.376 63.3292 14.7051 63.289 15.0474H55.5057C55.5593 15.732 55.7805 16.2586 56.1694 16.6272C56.5716 16.9826 57.061 17.1604 57.6375 17.1604C58.4956 17.1604 59.0923 16.8049 59.4275 16.094H63.0878C62.9001 16.8181 62.5582 17.4697 62.0621 18.049C61.5795 18.6282 60.9694 19.0824 60.232 19.4115C59.4945 19.7407 58.6699 19.9052 57.7582 19.9052C56.6587 19.9052 55.68 19.6748 54.8219 19.2141C53.9638 18.7533 53.2934 18.0951 52.8107 17.2393C52.328 16.3836 52.0866 15.3831 52.0866 14.2378C52.0866 13.0924 52.3213 12.0919 52.7906 11.2362C53.2732 10.3805 53.9436 9.72223 54.8017 9.26146C55.6599 8.80069 56.6453 8.57031 57.7582 8.57031C58.8442 8.57031 59.8096 8.79411 60.6543 9.24171C61.499 9.68932 62.156 10.3278 62.6253 11.1572C63.108 11.9866 63.3493 12.9542 63.3493 14.06ZM59.8297 13.1714C59.8297 12.5922 59.6286 12.1314 59.2264 11.7891C58.8241 11.4468 58.3213 11.2757 57.718 11.2757C57.1414 11.2757 56.652 11.4402 56.2498 11.7694C55.861 12.0985 55.6196 12.5658 55.5258 13.1714H59.8297Z" fill="white"/>
  <path d="M64.4798 14.218C64.4798 13.0858 64.6943 12.0919 65.1234 11.2362C65.5658 10.3805 66.1625 9.72223 66.9133 9.26146C67.6642 8.80069 68.5022 8.57031 69.4273 8.57031C70.1648 8.57031 70.8352 8.7217 71.4385 9.02449C72.0553 9.32728 72.538 9.73539 72.8866 10.2488V5.13429H76.3257V19.7472H72.8866V18.1675C72.5648 18.6941 72.1022 19.1153 71.4989 19.4313C70.9089 19.7472 70.2184 19.9052 69.4273 19.9052C68.5022 19.9052 67.6642 19.6748 66.9133 19.2141C66.1625 18.7401 65.5658 18.0753 65.1234 17.2196C64.6943 16.3507 64.4798 15.3502 64.4798 14.218ZM72.8866 14.2378C72.8866 13.3952 72.6452 12.7304 72.1625 12.2433C71.6933 11.7562 71.1167 11.5126 70.4329 11.5126C69.7491 11.5126 69.1659 11.7562 68.6832 12.2433C68.2139 12.7172 67.9793 13.3755 67.9793 14.218C67.9793 15.0606 68.2139 15.732 68.6832 16.2322C69.1659 16.7193 69.7491 16.9629 70.4329 16.9629C71.1167 16.9629 71.6933 16.7193 72.1625 16.2322C72.6452 15.7451 72.8866 15.0803 72.8866 14.2378Z" fill="white"/>
  <path d="M82.2529 8.72828V19.7472H78.8138V8.72828H82.2529Z" fill="white"/>
  <path d="M91 16.8839V19.7472H89.2503C88.0033 19.7472 87.0313 19.451 86.334 18.8586C85.6368 18.253 85.2882 17.2723 85.2882 15.9163V11.5324H83.9206V8.72828H85.2882V6.04266H88.7273V8.72828H90.9799V11.5324H88.7273V15.9558C88.7273 16.2849 88.8078 16.5219 88.9687 16.6667C89.1296 16.8115 89.3977 16.8839 89.7732 16.8839H91Z" fill="white"/>
  <path d="M77.8732 19.7472V2.34005C77.8732 1.80687 77.9704 1.36914 78.1648 1.02686C78.366 0.677988 78.6475 0.421274 79.0095 0.256714C79.3783 0.0855714 79.8107 0 80.3068 0C80.7894 0 81.2017 0.0724066 81.5436 0.21722C81.8855 0.35545 82.147 0.566087 82.328 0.849131C82.5157 1.12559 82.6096 1.47446 82.6096 1.89573C82.6096 2.21169 82.5526 2.48486 82.4386 2.71524C82.3314 2.94563 82.1772 3.12994 81.9761 3.26817C81.7816 3.4064 81.547 3.50184 81.2721 3.5545V3.58412C81.6207 3.6302 81.9224 3.72564 82.1772 3.87046C82.4386 4.01527 82.6397 4.21933 82.7805 4.48262C82.928 4.73934 83.0017 5.06846 83.0017 5.46998C83.0017 5.93075 82.8945 6.3257 82.68 6.65482C82.4721 6.97735 82.1906 7.2242 81.8353 7.39534C81.4867 7.56648 81.0978 7.65205 80.6688 7.65205C80.4542 7.65205 80.2766 7.63889 80.1358 7.61256C79.995 7.59281 79.8643 7.5599 79.7436 7.51382C79.6297 7.46774 79.5056 7.41179 79.3716 7.34597V19.7472H77.8732ZM80.3872 6.47709C80.7224 6.47709 80.9839 6.37836 81.1716 6.18088C81.3593 5.97683 81.4531 5.69708 81.4531 5.34163C81.4531 5.07175 81.3962 4.85453 81.2822 4.68997C81.1749 4.51882 81.0375 4.39705 80.8699 4.32464C80.7023 4.24565 80.528 4.20616 80.347 4.20616H79.3716V3.10032H80.2565C80.4375 3.10032 80.5917 3.05753 80.7191 2.97196C80.8464 2.8798 80.9436 2.75803 81.0107 2.60663C81.0777 2.44866 81.1112 2.27093 81.1112 2.07346C81.1112 1.76409 81.0308 1.5337 80.8699 1.38231C80.709 1.22433 80.5179 1.14534 80.2967 1.14534C80.109 1.14534 79.9447 1.18483 79.804 1.26382C79.6632 1.34281 79.5559 1.47117 79.4822 1.64889C79.4084 1.82004 79.3716 2.05371 79.3716 2.34992V6.14139C79.5392 6.24671 79.7034 6.32899 79.8643 6.38823C80.0252 6.44747 80.1995 6.47709 80.3872 6.47709Z" fill="#1CADFF"/>
</svg>